HIERARCHY
ROOT root
{
	OFFSET	0	13.1	24.9
	CHANNELS 6  Xposition Yposition Zposition Xrotation Yrotation Zrotation
	JOINT spine_1
	{
		OFFSET	0	9.99999	0
		CHANNELS 3  Xrotation Yrotation Zrotation
		JOINT spine_2
		{
			OFFSET	0	112	-10
			CHANNELS 3  Xrotation Yrotation Zrotation
			JOINT spine_3
			{
				OFFSET	0	206.5	19.3
				CHANNELS 3  Xrotation Yrotation Zrotation
				JOINT spine_4
				{
					OFFSET	0	110.4	14.6
					CHANNELS 3  Xrotation Yrotation Zrotation
					JOINT neck_1
					{
						OFFSET	0	71.8	-50.3
						CHANNELS 3  Xrotation Yrotation Zrotation
						JOINT neck_2
						{
							OFFSET	0	86.2	-25.8
							CHANNELS 3  Xrotation Yrotation Zrotation
							JOINT head_ee
							{
								OFFSET	0	179.8	-8.7
								CHANNELS 3  Xrotation Yrotation Zrotation
								End Site
								{
									OFFSET	1	0	0
								}
							}
						}
					}
					JOINT left_clavicle
					{
						OFFSET	-43.2	22.4	-70.8
						CHANNELS 3  Xrotation Yrotation Zrotation
						JOINT left_shoulder
						{
							OFFSET	-93.9	-5.79999	48.7
							CHANNELS 3  Xrotation Yrotation Zrotation
							JOINT left_elbow
							{
								OFFSET	-291.4	-30.8	15.2
								CHANNELS 3  Xrotation Yrotation Zrotation
								JOINT left_lowarm_twist
								{
									OFFSET	-110.7	-3.89999	13.6
									CHANNELS 3  Xrotation Yrotation Zrotation
									JOINT left_hand
									{
										OFFSET	-110.7	-3.89999	13.6
										CHANNELS 3  Xrotation Yrotation Zrotation
										JOINT left_ee
										{
											OFFSET	-80.8	-5.10001	12.1
											CHANNELS 3  Xrotation Yrotation Zrotation
											End Site
											{
												OFFSET	1	0	0
											}
										}
									}
								}
							}
						}
					}
					JOINT right_clavicle
					{
						OFFSET	43.2	22.4	-70.8
						CHANNELS 3  Xrotation Yrotation Zrotation
						JOINT right_shoulder
						{
							OFFSET	93.9	-5.79999	48.7
							CHANNELS 3  Xrotation Yrotation Zrotation
							JOINT right_elbow
							{
								OFFSET	291.4	-30.8	15.2
								CHANNELS 3  Xrotation Yrotation Zrotation
								JOINT right_lowarm_twist
								{
									OFFSET	110.7	-3.89999	13.6
									CHANNELS 3  Xrotation Yrotation Zrotation
									JOINT right_hand
									{
										OFFSET	110.7	-3.89999	13.6
										CHANNELS 3  Xrotation Yrotation Zrotation
										JOINT right_ee
										{
											OFFSET	80.8	-5.10001	12.1
											CHANNELS 3  Xrotation Yrotation Zrotation
											End Site
											{
												OFFSET	1	0	0
											}
										}
									}
								}
							}
						}
					}
				}
			}
		}
	}
	JOINT left_hip
	{
		OFFSET	-82.8	-127.5	0.300001
		CHANNELS 3  Xrotation Yrotation Zrotation
		JOINT left_knee
		{
			OFFSET	-28.2	-396.7	2.2
			CHANNELS 3  Xrotation Yrotation Zrotation
			JOINT left_ankle
			{
				OFFSET	-11.7	-411.3	35.4
				CHANNELS 3  Xrotation Yrotation Zrotation
				JOINT left_toes
				{
					OFFSET	0	-60	-88.6
					CHANNELS 3  Xrotation Yrotation Zrotation
					JOINT left_foot_ee
					{
						OFFSET	-22.5	-16.5	-42.2
						CHANNELS 3  Xrotation Yrotation Zrotation
						End Site
						{
							OFFSET	1	0	0
						}
					}
				}
			}
		}
	}
	JOINT right_hip
	{
		OFFSET	82.8	-127.5	0.300001
		CHANNELS 3  Xrotation Yrotation Zrotation
		JOINT right_knee
		{
			OFFSET	28.2	-396.7	2.2
			CHANNELS 3  Xrotation Yrotation Zrotation
			JOINT right_ankle
			{
				OFFSET	11.7	-411.3	35.4
				CHANNELS 3  Xrotation Yrotation Zrotation
				JOINT right_toes
				{
					OFFSET	0	-60	-88.6
					CHANNELS 3  Xrotation Yrotation Zrotation
					JOINT right_foot_ee
					{
						OFFSET	22.5	-16.5	-42.2
						CHANNELS 3  Xrotation Yrotation Zrotation
						End Site
						{
							OFFSET	1	0	0
						}
					}
				}
			}
		}
	}
}
MOTION
Frames: 13
Frame Time: 0.02
1372.05 701.618 -1475.22 0.667119626473 7.29788057305 -5.40323818367 -3.09112 0.539045 3.49954 -3.08437 0.31541 3.52671 -3.05574 -0.620148 3.4861 -3.07269 -0.0621603 3.54022 9.56297 10.2465 -4.87927 10.5523 21.3039 -6.01443 -0.0 0.0 -0.0 2.34066 -4.06265 4.18058 19.1868 -7.94275 60.9522 3.75941 -61.749 2.24821 14.441 0.280969 -1.81845 1.52384 -11.3775 5.44838 -0.0 0.0 -0.0 12.6949 19.7526 -25.554 -14.2897 2.57486 -66.6684 0.269866 7.61455 -0.0179589 18.5715 -0.276337 2.34589 -3.53325 -8.3041 19.8145 0.0 0.0 0.0 -26.8857 34.4665 19.7287 -0.0931148 0.00382284 0.013778 26.3476 -17.0586 -3.80101 39.2085 -0.0 -0.0 -0.0 0.0 -0.0 34.5004 19.7275 -8.01619 -9.18147 -0.267762 -1.38213 16.2645 -19.0431 2.30435 34.5606 -0.0 -0.0 0.0 0.0 0.0 
1345.05014696 695.529 -1529.50402266 -0.369958760154 11.0733266939 -5.07964758369 -3.08649 0.518532 3.24696 -3.08068 0.310982 3.27334 -3.05493 -0.557853 3.24044 -3.06958 -0.0393732 3.28782 13.5166 10.3031 -7.03834 15.0517 22.846 -9.4941 -0.0 0.0 -0.0 2.3161 -0.966138 4.38536 16.487 -9.11638 62.7913 3.80265 -62.021 2.28635 11.1688 0.257655 -1.4012 1.55276 -10.6467 5.96289 -0.0 0.0 -0.0 12.4419 19.5521 -24.9824 -15.1901 -0.412936 -67.4129 0.332327 9.34866 -0.0271724 20.9526 -0.2564 2.64935 -3.59884 -9.13764 19.7958 0.0 0.0 0.0 -28.8119 34.5789 19.1595 -0.923333 0.0369161 0.136887 27.8202 -21.2953 -4.1188 39.6533 -0.0 -0.0 -0.0 0.0 -0.0 34.1449 20.4728 -7.28606 -18.0298 -0.313885 -2.73763 12.029 -15.6825 1.71384 36.464 -0.0 -0.0 0.0 0.0 0.0 
1345.68202513 695.529 -1529.81374582 -0.369145104156 10.4083095138 -5.08401339995 -3.08649 0.518532 3.24696 -3.08068 0.310982 3.27334 -3.05493 -0.557853 3.24044 -3.06958 -0.0393732 3.28782 13.5166 10.3031 -7.03834 15.0517 22.846 -9.4941 -0.0 0.0 -0.0 2.3161 -0.966138 4.38536 16.487 -9.11638 62.7913 3.80265 -62.021 2.28635 11.1688 0.257655 -1.4012 1.55276 -10.6467 5.96289 -0.0 0.0 -0.0 12.4419 19.5521 -24.9824 -15.1901 -0.412936 -67.4129 0.332327 9.34866 -0.0271724 20.9526 -0.2564 2.64935 -3.59884 -9.13764 19.7958 0.0 0.0 0.0 -28.8119 34.5789 19.1595 -0.923333 0.0369161 0.136887 27.8202 -21.2953 -4.1188 39.6533 -0.0 -0.0 -0.0 0.0 -0.0 34.1449 20.4728 -7.28606 -18.0298 -0.313885 -2.73763 12.029 -15.6825 1.71384 36.464 -0.0 -0.0 0.0 0.0 0.0 
1333.63506819 689.49 -1561.32648193 -1.00498175299 13.4722520048 -4.47116888869 -2.9946 0.669112 2.78723 -2.99041 0.49047 2.82412 -2.95994 -0.261799 2.85439 -2.97126 0.192094 2.85992 10.8678 10.0745 -5.21399 11.9339 21.1605 -6.64197 -0.0 0.0 -0.0 1.96116 -1.8189 3.62184 14.9629 -8.93368 63.3686 3.26838 -58.2856 1.8227 9.36845 0.234677 -1.17239 1.5848 -9.18985 6.8118 -0.0 0.0 -0.0 13.1515 21.6874 -26.4667 -11.7648 -1.38072 -66.0508 0.456063 12.7308 -0.050877 22.9826 -0.229457 2.90723 -3.66146 -9.35672 20.102 0.0 0.0 0.0 -29.3985 34.5799 18.7164 -3.73295 0.135597 0.556744 27.3764 -23.7074 -4.15981 40.1731 -0.0 -0.0 -0.0 0.0 -0.0 35.2375 19.6679 -7.4054 -20.8329 -0.284809 -3.16669 8.14885 -14.2444 1.17244 35.8827 -0.0 -0.0 0.0 0.0 0.0 
1267.53211312 705.071 -1629.79612799 -1.24323033238 16.6969193457 -4.92244515652 -2.62712 1.0091 2.56387 -2.62386 0.843971 2.62283 -2.57962 0.150639 2.75107 -2.58971 0.58307 2.69283 9.55857 10.2993 -3.05019 10.3211 19.7413 -3.73727 -0.0 0.0 -0.0 1.41053 2.91711 2.98881 4.75583 -8.32272 68.0543 2.2981 -48.6966 1.04008 7.51853 0.20359 -0.938141 1.57 -7.60893 7.38982 -0.0 0.0 -0.0 14.0307 26.7603 -27.9787 -9.3855 -1.40907 -63.4799 0.488573 13.6056 -0.0582832 24.3155 -0.206804 3.07597 -3.46756 -8.71613 19.1311 0.0 0.0 0.0 -21.2735 35.1412 14.5409 -20.1934 0.29329 3.06894 25.8504 -26.2124 -4.0741 39.2501 -0.0 -0.0 -0.0 0.0 -0.0 32.428 19.4781 -5.82223 -24.6278 -0.212076 -3.74439 3.92624 -9.48472 0.568905 34.5174 -0.0 -0.0 0.0 0.0 0.0 
1269.36060824 705.071 -1631.01684477 -1.2389380803 16.0219941779 -4.93768387891 -2.62712 1.0091 2.56387 -2.62386 0.843971 2.62283 -2.57962 0.150639 2.75107 -2.58971 0.58307 2.69283 9.55857 10.2993 -3.05019 10.3211 19.7413 -3.73727 -0.0 0.0 -0.0 1.41053 2.91711 2.98881 4.75583 -8.32272 68.0543 2.2981 -48.6966 1.04008 7.51853 0.20359 -0.938141 1.57 -7.60893 7.38982 -0.0 0.0 -0.0 14.0307 26.7603 -27.9787 -9.3855 -1.40907 -63.4799 0.488573 13.6056 -0.0582832 24.3155 -0.206804 3.07597 -3.46756 -8.71613 19.1311 0.0 0.0 0.0 -21.2735 35.1412 14.5409 -20.1934 0.29329 3.06894 25.8504 -26.2124 -4.0741 39.2501 -0.0 -0.0 -0.0 0.0 -0.0 32.428 19.4781 -5.82223 -24.6278 -0.212076 -3.74439 3.92624 -9.48472 0.568905 34.5174 -0.0 -0.0 0.0 0.0 0.0 
1273.02095533 705.071 -1633.36871587 -1.23103123747 14.6863216634 -4.96754325757 -2.62712 1.0091 2.56387 -2.62386 0.843971 2.62283 -2.57962 0.150639 2.75107 -2.58971 0.58307 2.69283 9.55857 10.2993 -3.05019 10.3211 19.7413 -3.73727 -0.0 0.0 -0.0 1.41053 2.91711 2.98881 4.75583 -8.32272 68.0543 2.2981 -48.6966 1.04008 7.51853 0.20359 -0.938141 1.57 -7.60893 7.38982 -0.0 0.0 -0.0 14.0307 26.7603 -27.9787 -9.3855 -1.40907 -63.4799 0.488573 13.6056 -0.0582832 24.3155 -0.206804 3.07597 -3.46756 -8.71613 19.1311 0.0 0.0 0.0 -21.2735 35.1412 14.5409 -20.1934 0.29329 3.06894 25.8504 -26.2124 -4.0741 39.2501 -0.0 -0.0 -0.0 0.0 -0.0 32.428 19.4781 -5.82223 -24.6278 -0.212076 -3.74439 3.92624 -9.48472 0.568905 34.5174 -0.0 -0.0 0.0 0.0 0.0 
1247.49976894 711.594 -1646.83941489 -1.67365217178 16.160574787 -5.37996555916 -2.48707 0.957216 2.57609 -2.48372 0.791411 2.63173 -2.44196 0.104085 2.7461 -2.45209 0.536315 2.69526 10.7326 9.97506 -3.43947 11.5368 19.4012 -4.36836 -0.0 0.0 -0.0 1.91059 2.30337 3.87472 0.986451 -8.8509 68.5713 1.89061 -43.1191 0.747061 8.14706 0.215 -1.01762 1.47732 -7.36018 6.86548 -0.0 0.0 -0.0 14.1017 27.0439 -28.1076 -8.25909 -1.52755 -62.0591 0.482663 13.447 -0.056901 24.7658 -0.198263 3.13287 -3.14963 -8.77346 16.9324 0.0 0.0 0.0 -16.6973 35.5557 11.8448 -27.266 0.139037 4.14264 24.1243 -27.5104 -3.90194 39.3461 -0.0 -0.0 -0.0 0.0 -0.0 30.6461 19.4476 -5.30955 -25.7908 -0.18214 -3.92035 2.86034 -9.13535 0.415617 34.2286 -0.0 -0.0 0.0 0.0 0.0 
1253.84836486 711.594 -1651.27214306 -1.65722623806 14.0692117129 -5.44294869506 -2.48707 0.957216 2.57609 -2.48372 0.791411 2.63173 -2.44196 0.104085 2.7461 -2.45209 0.536315 2.69526 10.7326 9.97506 -3.43947 11.5368 19.4012 -4.36836 -0.0 0.0 -0.0 1.91059 2.30337 3.87472 0.986451 -8.8509 68.5713 1.89061 -43.1191 0.747061 8.14706 0.215 -1.01762 1.47732 -7.36018 6.86548 -0.0 0.0 -0.0 14.1017 27.0439 -28.1076 -8.25909 -1.52755 -62.0591 0.482663 13.447 -0.056901 24.7658 -0.198263 3.13287 -3.14963 -8.77346 16.9324 0.0 0.0 0.0 -16.6973 35.5557 11.8448 -27.266 0.139037 4.14264 24.1243 -27.5104 -3.90194 39.3461 -0.0 -0.0 -0.0 0.0 -0.0 30.6461 19.4476 -5.30955 -25.7908 -0.18214 -3.92035 2.86034 -9.13535 0.415617 34.2286 -0.0 -0.0 0.0 0.0 0.0 
1203.35738015 710.369 -1675.59001595 -3.21442595185 17.3687469721 -4.78223558495 -1.77393 0.869787 2.32783 -1.7712 0.719941 2.37842 -1.73756 0.129095 2.48159 -1.74578 0.519278 2.43011 12.0044 8.44086 -5.58989 12.9384 18.7343 -7.22435 -0.0 0.0 -0.0 2.94535 2.5788 5.84505 -3.17606 -8.68903 69.396 1.30069 -32.7931 0.382743 8.7002 0.224321 -1.08766 0.962869 -6.49763 3.744 -0.0 0.0 -0.0 14.0166 26.9514 -27.9208 -3.71288 0.272338 -59.5964 0.521168 14.4762 -0.0661915 25.4841 -0.183717 3.22347 -2.7078 -9.5976 13.5386 0.0 0.0 0.0 -12.2494 32.7188 10.8885 -36.6828 -0.269326 5.52828 21.3042 -28.3541 -3.5416 38.0147 -0.0 -0.0 -0.0 0.0 -0.0 27.9448 19.8671 -3.96546 -22.6654 -0.254467 -3.44624 3.54721 -7.60296 0.514437 32.9027 -0.0 -0.0 0.0 0.0 0.0 
1181.88647476 713.363 -1685.37235614 -3.25235225211 17.6064592894 -5.03240281144 -1.50879 0.86475 2.22034 -1.50633 0.721749 2.27083 -1.4745 0.167553 2.37682 -1.48197 0.540724 2.32059 12.3267 7.83757 -6.38125 13.3068 18.4638 -8.26765 -0.0 0.0 -0.0 3.82625 4.69569 7.60251 -5.20385 -8.52534 70.7447 1.12828 -29.2006 0.29391 8.66546 0.223755 -1.08326 0.693965 -6.03191 2.12418 -0.0 0.0 -0.0 13.9099 26.6913 -27.7054 -1.59761 1.52447 -58.8133 0.545896 15.1322 -0.0725101 25.8325 -0.17625 3.26735 -2.51097 -10.004 12.0323 0.0 0.0 0.0 -10.0654 30.9111 11.1488 -39.7966 -0.453875 5.96979 19.8147 -28.5211 -3.3296 36.8508 -0.0 -0.0 -0.0 0.0 -0.0 25.8342 20.3032 -2.33538 -22.0549 -0.265569 -3.35321 4.71364 -6.63765 0.681565 32.5665 -0.0 -0.0 0.0 0.0 0.0 
1189.91140546 713.363 -1692.36444848 -3.21631122909 15.4580299156 -5.15903804238 -1.50879 0.86475 2.22034 -1.50633 0.721749 2.27083 -1.4745 0.167553 2.37682 -1.48197 0.540724 2.32059 12.3267 7.83757 -6.38125 13.3068 18.4638 -8.26765 -0.0 0.0 -0.0 3.82625 4.69569 7.60251 -5.20385 -8.52534 70.7447 1.12828 -29.2006 0.29391 8.66546 0.223755 -1.08326 0.693965 -6.03191 2.12418 -0.0 0.0 -0.0 13.9099 26.6913 -27.7054 -1.59761 1.52447 -58.8133 0.545896 15.1322 -0.0725101 25.8325 -0.17625 3.26735 -2.51097 -10.004 12.0323 0.0 0.0 0.0 -10.0654 30.9111 11.1488 -39.7966 -0.453875 5.96979 19.8147 -28.5211 -3.3296 36.8508 -0.0 -0.0 -0.0 0.0 -0.0 25.8342 20.3032 -2.33538 -22.0549 -0.265569 -3.35321 4.71364 -6.63765 0.681565 32.5665 -0.0 -0.0 0.0 0.0 0.0 
1112.87462855 730.209 -1716.39980277 -1.28870154835 31.219573699 -6.5425881962 -1.17012 0.586089 2.11515 -1.16774 0.45034 2.14814 -1.14844 -0.055109 2.19413 -1.15504 0.29202 2.17531 3.89626 13.3589 0.888744 4.44863 22.4023 1.71008 -0.0 0.0 -0.0 3.98748 20.1031 8.21085 -11.9395 -15.8728 66.3485 0.706011 -19.2766 0.1199 8.99043 0.22894 -1.12444 0.503668 -3.90656 1.73648 -0.0 0.0 -0.0 14.0099 27.1109 -27.8842 5.96983 5.15081 -58.9712 0.761272 20.662 -0.138774 33.6805 0.0619901 4.24069 -1.47563 -8.0631 6.2105 0.0 0.0 0.0 13.7368 18.0693 1.81536 -82.2598 -5.01641 10.4591 32.7323 -31.2508 -5.22139 32.2089 -0.0 -0.0 -0.0 0.0 -0.0 17.9515 22.6476 1.09414 -28.6216 -0.0943904 -4.34588 13.574 3.40602 1.94023 33.3397 -0.0 -0.0 0.0 0.0 0.0 
